# xmcd
#
# Track frame offsets: 
#        150
#        17928
#        37415
#        48293
#        65123
#        76240
#        90178
#        107572
#        120446
#        137587
#        152001
#        165083
#        180767
#        195632
#        208971
#        226283
#        238624
#        254982
#        269794
#        286230
#        300478
#        313035
#
# Disc length: 4369 seconds
#
# Revision: 0
# Processed by: cddbd v1.5.1PL2 Copyright (c) Steve Scherf et al.
# Submitted via: ExactAudioCopy v0.95a5
#
DISCID=2e110f16
DTITLE=Alan Jackson - Greatest Hits Collection
DYEAR=1995
DGENRE=Country
TTITLE0=Chattahoochee (Extended Mix)
TTITLE1=Gone Country
TTITLE2=She's Got The Rhythm (And I Got The Blues)
TTITLE3=Midnight In Montgomery
TTITLE4=Tall, Tall Trees
TTITLE5=Chasin' That Neon Rainbow
TTITLE6=I'll Try
TTITLE7=Don't Rock The Jukebox
TTITLE8=Livin' On Love
TTITLE9=Summertime Blues
TTITLE10=Love's Got A Hold On You
TTITLE11=(Who Says) You Can't Have It All
TTITLE12=Home
TTITLE13=Wanted
TTITLE14=I Don't Even Know Your Name
TTITLE15=Dallas
TTITLE16=Here In The Real World
TTITLE17=Someday
TTITLE18=Mercury Blues
TTITLE19=I'd Love You All Over Again
TTITLE20=Who I Am
TTITLE21=I Don't Need The Booze (To Get A Buzz On)
EXTD=
EXTT0=
EXTT1=
EXTT2=
EXTT3=
EXTT4=
EXTT5=
EXTT6=
EXTT7=
EXTT8=
EXTT9=
EXTT10=
EXTT11=
EXTT12=
EXTT13=
EXTT14=
EXTT15=
EXTT16=
EXTT17=
EXTT18=
EXTT19=
EXTT20=
EXTT21=
PLAYORDER=
